<?xml version="1.0" encoding="utf-8" ?>
<svg version="1.1" id="Layer_1" xmlns="http://www.w3.org/2000/svg" xmlns:xlink="http://www.w3.org/1999/xlink" x="0px" y="0px"
	 viewBox="0 0 200 200" style="enable-background:new 0 0 200 200;" xml:space="preserve">
<style type="text/css">
	.st0 {fill: #1572B9;}
	.st1 {fill: #A0C6E2;}
	.st2 {fill: #D0E2F1;}
	.st3 {fill: url(#SVGID_1_);}
	.st4 {clip-path: url(#SVGID_00000142171775418537674970000009940642258536951456_);}
	.st5 {fill: #F2F2F2;}
</style>
<rect class="st0" width="200" height="200" />
<g id="layer1">
	<path id="path4912" class="st1" d="M38.9,71.5L6.7,39.2L38.9,7v16.1L22.8,39.2l16.1,16.1V71.5z" />
	<path id="path9393" class="st1" d="M38.9,50.8L27.4,39.2l11.5-11.5V50.8z" />
	<path id="path13640" class="st2" d="M41.2,7v16.1l16.1,16.1L41.2,55.4v16.1l33.4-32.2L41.2,7z" />
</g>
<g>
	<path class="st1" d="M84.3,94.7c-0.7,0-1.2-0.5-1.2-1.2v0l0,0c0-7.7-6.2-13.9-13.9-13.9c-0.7,0-1.2-0.5-1.2-1.2l0,0
			c0-0.7,0.5-1.2,1.2-1.2l0,0l0,0c7.7,0,13.9-6.2,13.9-13.9c0-0.7,0.5-1.2,1.2-1.2l0,0h0c0.7,0,1.2,0.5,1.2,1.2l0,0v0l0,0
			c0,7.7,6.2,13.9,13.9,13.9c0.7,0,1.2,0.5,1.2,1.2v0l0,0c0,0.7-0.5,1.2-1.2,1.2h0c-7.7,0-13.9,6.2-13.9,13.9
			C85.5,94.2,85,94.7,84.3,94.7z" />
	<path class="st1" d="M171.9,179.1c-0.5,0-1-0.4-1-1l0,0c0-6.1-5-11.1-11.1-11.1c-0.5,0-1-0.4-1-1l0,0c0-0.5,0.4-1,1-1l0,0l0,0
			c6.1,0,11.1-5,11.1-11.1c0-0.5,0.4-1,1-1l0,0c0.5,0,1,0.4,1,1l0,0c0,6.1,5,11.1,11.1,11.1c0.5,0,1,0.4,1,1s-0.4,1-1,1l0,0l0,0
			c-6.1,0-11.1,5-11.1,11.1C172.9,178.6,172.4,179.1,171.9,179.1z" />

	<radialGradient id="SVGID_1_" cx="50.8447" cy="414.6455" r="41.2186" gradientTransform="matrix(1.04 0 0 -1.03 73.1 547.1609)" gradientUnits="userSpaceOnUse">
	<stop offset="0.18" style="stop-color:#679CD3" />
	<stop offset="1" style="stop-color:#3FAEFF" />
		</radialGradient>
	<path class="st3" d="M167.5,110.4c5.4,22.8-8.6,45.7-31.4,51.2s-45.7-8.6-51.2-31.4c-5.4-22.8,8.6-45.7,31.4-51.2l0,0
			C139.1,73.5,162,87.6,167.5,110.4z" />
	<g>
		<g>
			<defs>
				<path id="SVGID_00000002374708888999276010000010984264109859546521_" d="M167.5,110.4c5.4,22.8-8.6,45.7-31.4,51.2
						s-45.7-8.6-51.2-31.4c-5.4-22.8,8.6-45.7,31.4-51.2l0,0C139.1,73.5,162,87.6,167.5,110.4z" />
			</defs>
			<clipPath id="SVGID_00000019647822094988787280000004568458155285571240_">
				<use xlink:href="#SVGID_00000002374708888999276010000010984264109859546521_" style="overflow:visible;" />
			</clipPath>
			<g style="clip-path:url(#SVGID_00000019647822094988787280000004568458155285571240_);">
				<path class="st5" d="M103.4,149.1c6.3,0.2,11.5-4.7,11.7-11c0.2-6.3-4.7-11.5-11-11.7c0,0-0.1,0-0.1,0c-0.2,0-0.4,0-0.6,0
									c0-0.3,0-0.6,0-1c0-6.3-5.2-11.4-11.5-11.3h-8.5c-1.7,12.7,2.4,25.5,11,35H103.4z" />
				<path class="st5" d="M168,112.4c0-0.1,0-0.2,0-0.3c-1.4-7.4-4.7-14.3-9.7-19.9c-6.8-2.7-14.5,0.6-17.2,7.4
									c-0.1,0.2-0.1,0.4-0.2,0.6c-0.3,1-0.4,1.9-0.5,2.9c-0.5,0-0.9-0.1-1.4-0.1c-6.6,0-12,5.3-12,12c0,5.1,3.2,9.7,8,11.4
									c1.2,0.5,2.5,0.7,3.8,0.7h14C158.3,122.7,163.4,117.8,168,112.4z" />
			</g>
		</g>
	</g>
	<path class="st1" d="M182.8,84.8c-4.4-7.2-14.5-10.1-28.8-7.9c-4.9,0.7-9.7,1.7-14.4,3.1c3.7,1.3,7.3,3.1,10.6,5.3
			c1.7-0.4,3.3-0.8,5-1.1c2.5-0.4,5.1-0.6,7.6-0.6c5.1-0.7,10.2,1.2,13.6,5l0,0c2.6,4.4,0.4,12-6.1,20.8c-9.1,11.3-20.2,20.8-32.9,28
			c-12.3,7.7-26,13-40.3,15.7c-10.8,1.6-18.6,0-21.2-4.4s-0.4-12,6.1-20.7c0.8-1.1,1-1.6,1.9-2.7c-0.4-3.8-0.4-7.5,0.2-11.3
			c-2.9,2.9-5.6,6.1-8.1,9.5c-8.6,11.5-10.9,21.8-6.6,29c4.7,6.3,12.3,9.5,20.1,8.6c2.9,0,5.8-0.2,8.7-0.7c15.3-2.8,29.9-8.4,43-16.6
			c13.4-7.7,25.3-17.9,35-30C184.8,102.4,187.2,92.1,182.8,84.8z" />
</g>
</svg>
